<svg width="13" height="13" viewBox="0 0 13 13" fill="none" xmlns="http://www.w3.org/2000/svg">
<path d="M7.97137 6.52609L12.698 11.2361C12.8914 11.4299 13 11.6927 13 11.9667C13 12.2408 12.8914 12.5036 12.698 12.6974C12.5046 12.8911 12.2423 13 11.9688 13C11.6953 13 11.433 12.8911 11.2396 12.6974L6.51302 7.97432L1.76038 12.7235C1.56489 12.8976 1.31052 12.9907 1.04901 12.9836C0.787504 12.9765 0.538514 12.8698 0.352706 12.6853C0.166897 12.5008 0.0582307 12.2523 0.0488171 11.9903C0.0394035 11.7284 0.12995 11.4727 0.302033 11.2752L5.05468 6.52609L0.302033 1.76391C0.108645 1.57013 -2.03768e-09 1.30732 0 1.03328C2.03768e-09 0.759234 0.108645 0.496416 0.302033 0.302639C0.495422 0.108863 0.757713 2.04177e-09 1.03121 0C1.3047 -2.04177e-09 1.56699 0.108863 1.76038 0.302639L6.51302 5.05177L11.2396 0.341781C11.4351 0.167589 11.6895 0.0745705 11.951 0.0816532C12.2125 0.0887359 12.4615 0.195387 12.6473 0.379907C12.8331 0.564426 12.9418 0.812948 12.9512 1.07491C12.9606 1.33686 12.87 1.59257 12.698 1.79001L7.97137 6.52609Z" fill="#000"/>
</svg>
